<svg xmlns="http://www.w3.org/2000/svg" width="174" height="14" viewBox="0 0 174 14"><g><g><path fill="#041c4d" d="M10.61 8.195v-.002.002zm0 1.769c-2.212 0-3.338-.01-6.541 0C1.58 9.72-.107 7.312.005 4.664.117 2.02 2.012.067 5.035.004c.07-.002 9.773 0 14.971 0l-.782 1.81h-3.09v8.149h-1.782V1.815c-.341-.019-.611 0-.88 0-2.77-.003-5.539-.005-8.307 0-1.93.004-3.261 1.22-3.327 3.008-.075 2.005 1.02 3.254 3.086 3.368 1.527.086 5.633.06 5.687.004v1.769zm88.967-.312h-1.919c-.434-2.074-.869-4.145-1.35-6.448-.324.599-.56 1.018-.782 1.446-.755 1.457-1.476 2.935-2.277 4.366-.336.605-.608.759-1.049.762-.375.002-.66-.157-1-.751-.966-1.729-1.85-3.506-2.765-5.264-.06-.117-.14-.226-.312-.502l-1.321 6.377H84.87c.514-2.13 1.018-4.211 1.52-6.294.18-.743.33-1.374.562-2.22.12-.439.402-1.025.928-1.034.68-.01.924.389 1.131.762.918 1.659 1.738 3.372 2.598 5.062.176.346.371.682.622 1.14l2.766-5.38c.156-.302.327-.583.48-.892.197-.395.478-.695 1.096-.693.448.001.784.559.904.952.396 1.297.665 2.634.983 3.955l1.116 4.656zm52.366-.089h-1.919l-1.351-6.447c-.324.598-.56 1.017-.782 1.445-.755 1.457-1.476 2.935-2.277 4.367-.336.605-.607.758-1.048.762-.375.001-.66-.157-.999-.752-.968-1.728-1.851-3.506-2.766-5.263-.061-.118-.141-.227-.312-.503l-1.322 6.378h-1.931l1.521-6.295c.179-.743.33-1.373.561-2.219.121-.44.402-1.026.928-1.034.681-.01.925.388 1.132.762.918 1.658 1.737 3.37 2.597 5.062.177.346.372.681.623 1.14l2.766-5.38c.156-.303.327-.584.48-.892.196-.396.478-.696 1.096-.694.448.002.783.559.904.953.395 1.297.665 2.633.982 3.954.362 1.515.725 3.027 1.117 4.656zm-32.331-2.626l2.901 2.713h-2.524l-2.576-2.54h-4.574v2.53h-1.645V.136c1.605 0 3.179-.013 4.754.005 1.07.012 2.158-.032 3.21.128 1.917.293 2.818 1.248 3.057 2.993.202 1.476-.545 2.652-2.191 3.453-.076.038-.149.08-.412.222zm-6.73-1.67c2.019 0 3.983.076 5.938-.031 1.111-.061 1.652-.784 1.622-1.703-.031-.891-.582-1.573-1.629-1.619-1.958-.089-3.922-.026-5.931-.026v3.379zM50.579 9.666V7.978h3.82c1.1 0 2.203.02 3.304-.012.384-.012.837-.052 1.127-.264.304-.223.622-.67.616-1.01-.009-.338-.348-.791-.667-.967-.395-.218-.916-.27-1.385-.281-1.382-.034-2.768.002-4.153-.015-1.785-.023-2.887-1.04-2.893-2.632-.005-1.56 1.153-2.642 2.89-2.654C55.61.126 57.98.138 60.428.138v1.715h-.904c-1.979 0-3.955-.007-5.933.003-.647.004-1.337.079-1.346.93-.006.855.654.935 1.322.933 1.413-.005 2.825-.022 4.238.003 1.93.035 3.222 1.238 3.24 2.975.018 1.602-1.065 2.899-2.668 2.947-2.565.078-5.136.022-7.798.022zM173.364.162v1.706h-4.674c-.791 0-1.583-.022-2.374.012-.611.026-1.145.237-1.12.989.024.715.545.857 1.127.86 1.498.007 2.996-.027 4.493.01 2.244.057 3.613 1.814 3.062 3.881-.282 1.057-1.288 2.003-2.462 2.034-2.592.068-5.188.02-7.847.02V7.992h2.216c1.724-.002 3.448.019 5.171-.019.849-.017 1.4-.513 1.441-1.159.044-.697-.36-1.212-1.286-1.278-1.49-.106-2.99-.063-4.484-.094-.452-.008-.915.009-1.349-.092-1.257-.293-2.104-1.449-2.028-2.686.085-1.345 1.107-2.437 2.562-2.482 2.486-.075 4.97-.02 7.552-.02zm-11.396 7.821V9.69h-8.166V.187h8.145v1.684h-6.358v2.102h5.978v1.759h-5.994v2.251h6.395zm-84.01 1.708c-.537 0-1.073.016-1.61-.003-2.615-.089-4.53-2.153-4.51-4.854.02-2.703 1.874-4.65 4.536-4.686 1.378-.018 2.781-.071 4.132.149 2.358.383 3.8 2.468 3.593 4.901-.217 2.554-1.978 4.367-4.364 4.476-.592.027-1.184.004-1.778.004v.013zm-.04-1.713c.48 0 .96.007 1.439-.001 1.761-.03 3.018-1.253 3.054-2.963.035-1.702-1.188-3.066-2.891-3.151a29.79 29.79 0 0 0-3.047 0c-1.777.092-2.94 1.41-2.9 3.206.04 1.733 1.254 2.884 3.074 2.908.425.006.849.001 1.271.001zm25.124-2.267v2.232h6.462v1.67h-8.168V.199h8.17v1.61h-6.436v2.184h5.959v1.718h-5.987zM37.497.138l-.818 1.756c-1.75 0-3.471-.006-5.192.001-1.966.007-3.208 1.19-3.216 3.048-.009 1.854 1.23 3.023 3.218 3.034 1.668.008 3.336.01 5.002.02.049 0 .1.043.203.089V9.6c-2.209 0-4.399.21-6.532-.056-2.29-.287-3.78-2.675-3.637-4.938.192-3.02 2.44-4.448 4.613-4.466C33.2.124 35.264.138 37.497.138zm1.55.029h1.1v1.61c0 1.279-.015 2.556.005 3.834.02 1.334.565 2.062 1.866 2.199 1.137.119 2.31.124 3.443-.023 1.128-.146 1.652-.843 1.695-2.004.056-1.53.033-3.064.044-4.598.001-.307 0-.616 0-.986h1.64c.026.215.075.454.077.694.006 1.532.018 3.066 0 4.599-.03 2.546-1.334 3.991-3.852 4.152-1.145.073-2.326.08-3.452-.11-2.124-.357-3.176-1.682-3.23-3.836-.031-1.163-.082-2.335.023-3.49.061-.677.407-1.33.641-2.041zm26.544 1.725h-3.692v-1.7h9.075v1.676H67.31v7.805h-1.718V1.892zm67.004-.041h-3.626v7.78h-1.69v-7.75h-3.695V.194h9.011V1.85zM16.179 11.977V14H3.72v-2.023h12.458zm119.468-2.323h-1.58V.19h1.58v9.463z"/></g></g></svg>